<?xml version="1.0" encoding="UTF-8"?>
<svg width="16px" height="16px" viewBox="0 0 16 16" version="1.1" xmlns="http://www.w3.org/2000/svg" xmlns:xlink="http://www.w3.org/1999/xlink">
    <!-- Generator: Sketch 47.1 (45422) - http://www.bohemiancoding.com/sketch -->
    <title>Shape</title>
    <desc>Created with Sketch.</desc>
    <defs></defs>
    <g id="Symbols" stroke="none" stroke-width="1" fill="none" fill-rule="evenodd">
        <g id="搜索框" transform="translate(-229.000000, -12.000000)" fill-rule="nonzero" fill="#D1D1D1">
            <path d="M230.490377,19.268754 C230.433946,16.8491941 231.848117,14.6363506 234.067588,13.6712604 C236.28706,12.7061702 238.869907,13.1809958 240.601022,14.8723545 C242.332137,16.5637133 242.866833,19.1348327 241.95356,21.3761241 C241.040287,23.6174156 238.860891,25.0826075 236.440673,25.0823973 C233.1923,25.119761 230.528481,22.5171186 230.490377,19.268754 Z M244.817637,26.9597808 L241.935103,24.1423711 C243.123265,22.7781187 243.802305,21.0444909 243.856792,19.236192 C243.856792,15.2401463 240.440456,12.0004988 236.367009,12.0004988 C232.346766,11.9539337 229.049235,15.1738109 229,19.1940216 C229.048513,23.250399 232.349843,26.5136599 236.40651,26.5151233 C238.087871,26.5922721 239.73982,26.054715 241.053795,25.0028608 L243.936329,27.8218719 C244.181241,28.0609687 244.572191,28.0609687 244.817103,27.8218719 C244.933904,27.7089185 244.999899,27.553423 245,27.3909395 C245.0001,27.2284559 244.934297,27.0728788 244.817637,26.9597808 Z" id="Shape"></path>
        </g>
    </g>
</svg>