<?xml version="1.0" encoding="UTF-8"?>
<svg width="10px" height="11px" viewBox="0 0 10 11" version="1.1" xmlns="http://www.w3.org/2000/svg" xmlns:xlink="http://www.w3.org/1999/xlink">
    <!-- Generator: Sketch 49.3 (51167) - http://www.bohemiancoding.com/sketch -->
    <title>用户</title>
    <desc>Created with Sketch.</desc>
    <defs>
        <polygon id="path-1" points="1.80463939e-19 1.52655852e-15 1.80463939e-19 11 10 11 10 0"></polygon>
    </defs>
    <g id="Page-1" stroke="none" stroke-width="1" fill="none" fill-rule="evenodd">
        <g id="超级管理员列表，列表一页显示20条" transform="translate(-382.000000, -342.000000)">
            <g id="表格" transform="translate(369.000000, 274.000000)">
                <g id="用户" transform="translate(13.000000, 68.000000)">
                    <mask id="mask-2" fill="white">
                        <use xlink:href="#path-1"></use>
                    </mask>
                    <g id="Clip-2"></g>
                    <path d="M2,3.09371805 C2,4.80236508 3.34316113,6.1875 4.99996902,6.1875 C6.65683887,6.1875 8,4.80236508 8,3.09371805 C8,1.38513492 6.65683887,0 4.99996902,0 C3.34316113,0 2,1.38513492 2,3.09371805 Z" id="Fill-1" fill="#AAAAAA" mask="url(#mask-2)"></path>
                    <path d="M8.03216875,6.3384892 C7.7831783,6.13005808 7.42753896,6.14899881 7.19637535,6.3953668 C6.6273082,7.00171943 5.84490426,7.38068637 4.97350921,7.38068637 C4.10216618,7.38068637 3.31972323,7.00171943 2.75069509,6.3953668 C2.51949246,6.14899881 2.16384012,6.1111035 1.91491469,6.3384892 C0.954632568,7.21015055 0.24328888,8.3281799 0.0121382639,9.86308535 C-0.0768008267,10.4883649 0.332227971,11 0.936857753,11 L9.06355013,11 C9.6504051,11 10.0771567,10.4883649 9.98826962,9.86308535 C9.73929218,8.3281799 9.0279875,7.21015055 8.03216875,6.3384892 Z" id="Fill-3" fill="#AAAAAA" mask="url(#mask-2)"></path>
                </g>
            </g>
        </g>
    </g>
</svg>